<?xml version="1.0" encoding="utf-8"?>
<!-- Generator: Adobe Illustrator 25.2.0, SVG Export Plug-In . SVG Version: 6.00 Build 0)  -->
<svg version="1.1" id="Layer_1" xmlns="http://www.w3.org/2000/svg" xmlns:xlink="http://www.w3.org/1999/xlink" x="0px" y="0px"
	 viewBox="0 0 16 16" style="enable-background:new 0 0 16 16;" xml:space="preserve">
<style type="text/css">
	.st0{fill:#0047AB;}
</style>
<g>
	<g>
		<g>
			<g>
				<path class="st0" d="M1.5,8.4H1.1C1.1,8.4,1,8.4,1,8.5v0.4C1,8.9,1.1,9,1.1,9h0.4c0.1,0,0.1,0,0.1-0.1V8.5
					C1.6,8.4,1.6,8.4,1.5,8.4z"/>
				<path class="st0" d="M1.6,8.3H1.1C1,8.3,0.9,8.3,0.9,8.4v0.5C0.9,9,1,9.1,1.1,9.1h0.5c0.1,0,0.2-0.1,0.2-0.2V8.4
					C1.7,8.3,1.7,8.3,1.6,8.3z M1.7,8.9C1.7,8.9,1.6,9,1.5,9H1.1C1,9,1,8.9,1,8.9V8.5C1,8.4,1,8.3,1.1,8.3h0.4
					c0.1,0,0.1,0.1,0.1,0.1V8.9z"/>
			</g>
			<g>
				<path class="st0" d="M1.1,7.8H0.9c0,0,0,0,0,0V8c0,0,0,0,0,0h0.2c0,0,0,0,0,0L1.1,7.8C1.1,7.8,1.1,7.8,1.1,7.8z"/>
				<path class="st0" d="M1.1,7.8H0.9c0,0-0.1,0-0.1,0.1v0.2c0,0,0,0.1,0.1,0.1h0.2c0,0,0.1,0,0.1-0.1L1.1,7.8
					C1.2,7.8,1.1,7.8,1.1,7.8z M1.1,8C1.1,8.1,1.1,8.1,1.1,8L0.9,8.1c0,0-0.1,0-0.1-0.1V7.9c0,0,0-0.1,0.1-0.1h0.2
					c0,0,0.1,0,0.1,0.1V8z"/>
			</g>
			<g>
				<path class="st0" d="M0.7,9.1H0.6c0,0,0,0,0,0v0.1c0,0,0,0,0,0h0.1c0,0,0,0,0,0L0.7,9.1C0.8,9.1,0.7,9.1,0.7,9.1z"/>
				<path class="st0" d="M0.7,9.1H0.6c0,0,0,0,0,0v0.1c0,0,0,0,0,0h0.1c0,0,0,0,0,0L0.7,9.1C0.8,9.1,0.8,9.1,0.7,9.1z M0.8,9.3
					C0.8,9.3,0.7,9.3,0.8,9.3l-0.2,0c0,0,0,0,0,0V9.1c0,0,0,0,0,0h0.1c0,0,0,0,0,0V9.3z"/>
			</g>
			<g>
				<path class="st0" d="M3.9,6.2H3.8c0,0,0,0,0,0v0.1c0,0,0,0,0,0h0.1c0,0,0,0,0,0L3.9,6.2C3.9,6.2,3.9,6.2,3.9,6.2z"/>
				<path class="st0" d="M3.9,6.1H3.7c0,0,0,0,0,0v0.1c0,0,0,0,0,0h0.1c0,0,0,0,0,0L3.9,6.1C3.9,6.1,3.9,6.1,3.9,6.1z M3.9,6.3
					C3.9,6.3,3.9,6.3,3.9,6.3l-0.2,0c0,0,0,0,0,0V6.2c0,0,0,0,0,0h0.1c0,0,0,0,0,0V6.3z"/>
			</g>
			<g>
				<path class="st0" d="M10.5,6.9H9.7H9.4H9.1C9,6.9,9,6.9,8.9,7c0,0-0.1,0.1-0.1,0.1l-1.4,4.1c0,0.1-0.1,0.2-0.1,0.3
					c0,0.1-0.1,0.2-0.1,0.3c0-0.1-0.1-0.2-0.1-0.3c0-0.1-0.1-0.2-0.1-0.3L5.6,7.1C5.5,7.1,5.5,7,5.5,7c0,0-0.1-0.1-0.2-0.1H4.8H4.6
					H3.6V6.6c0-0.2-0.2-0.4-0.4-0.4H2c-0.2,0-0.4,0.2-0.4,0.4v1.2C1.7,8,1.8,8.2,2,8.2h1.2c0.2,0,0.4-0.2,0.4-0.4V7.5h1.1
					c0.1,0,0.1,0,0.2,0.1l1.9,5.2h0.7l1.9-5.2c0-0.1,0.1-0.1,0.2-0.1h0.9L10.5,6.9z M9.4,7.2c-0.1,0-0.2,0.1-0.2,0.1l-1.8,5.1H7
					l-1.9-5c0-0.1-0.1-0.2-0.2-0.2H3.4v0.4C3.4,7.8,3.2,8,3.1,8H2.2C2,8,1.8,7.8,1.8,7.6V6.8c0-0.2,0.1-0.3,0.3-0.3h0.9
					c0.2,0,0.3,0.1,0.3,0.3v0.4h1.5c0.1,0,0.3,0.1,0.3,0.2l1.9,5h0.2l1.8-5C9.1,7.2,9.2,7.1,9.4,7.2l1.1-0.1v0.1H9.4z"/>
				<path class="st0" d="M3.1,6.5H2.2c-0.1,0-0.2,0.1-0.2,0.2v0.9c0,0.1,0.1,0.2,0.2,0.2h0.9c0.1,0,0.2-0.1,0.2-0.2V6.8
					C3.3,6.6,3.2,6.5,3.1,6.5z"/>
				<path class="st0" d="M3.3,7.6c0,0.1-0.1,0.2-0.2,0.2H2.2c-0.1,0-0.2-0.1-0.2-0.2V6.8c0-0.1,0.1-0.2,0.2-0.2h0.9
					c0.1,0,0.2,0.1,0.2,0.2V7.6z"/>
			</g>
		</g>
		<g>
			<g>
				<path class="st0" d="M14.9,7h-0.5c-0.1,0-0.2,0.1-0.2,0.2v0.5c0,0.1,0.1,0.2,0.2,0.2h0.5C15,7.8,15,7.8,15,7.7V7.2
					C15,7.1,15,7,14.9,7z M15,7.6c0,0.1-0.1,0.1-0.1,0.1h-0.4c-0.1,0-0.1-0.1-0.1-0.1V7.2c0-0.1,0.1-0.1,0.1-0.1h0.4
					c0.1,0,0.1,0.1,0.1,0.1V7.6z"/>
				<path class="st0" d="M14.8,7.1h-0.4c-0.1,0-0.1,0-0.1,0.1v0.4c0,0.1,0,0.1,0.1,0.1h0.4c0.1,0,0.1,0,0.1-0.1V7.2
					C14.9,7.2,14.9,7.1,14.8,7.1z"/>
				<path class="st0" d="M14.9,7.6c0,0.1,0,0.1-0.1,0.1h-0.4c-0.1,0-0.1,0-0.1-0.1V7.2c0-0.1,0-0.1,0.1-0.1h0.4c0.1,0,0.1,0,0.1,0.1
					V7.6z"/>
			</g>
			<g>
				<path class="st0" d="M15.3,8h-0.2c0,0-0.1,0-0.1,0.1v0.2c0,0,0,0.1,0.1,0.1h0.2c0,0,0.1,0,0.1-0.1L15.3,8C15.4,8,15.4,8,15.3,8z
					"/>
				<path class="st0" d="M15.4,7.9h-0.3c0,0-0.1,0-0.1,0.1v0.3c0,0,0,0.1,0.1,0.1h0.3c0,0,0.1,0,0.1-0.1L15.4,7.9
					C15.5,8,15.4,7.9,15.4,7.9z M15.4,8.2C15.4,8.3,15.4,8.3,15.4,8.2l-0.3,0.1c0,0-0.1,0-0.1-0.1V8.1c0,0,0-0.1,0.1-0.1h0.2
					c0,0,0.1,0,0.1,0.1V8.2z"/>
				<path class="st0" d="M15.4,8.2C15.4,8.3,15.4,8.3,15.4,8.2l-0.2,0.1c0,0-0.1,0-0.1-0.1V8.1c0,0,0-0.1,0.1-0.1h0.2
					c0,0,0.1,0,0.1,0.1V8.2z"/>
			</g>
			<g>
				<path class="st0" d="M14.1,6.9L14.1,6.9C14,6.9,14,6.9,14.1,6.9L14.1,6.9C14,7,14,7,14,7h0.1C14.1,7,14.1,7,14.1,6.9L14.1,6.9
					C14.1,6.9,14.1,6.9,14.1,6.9z"/>
				<path class="st0" d="M14.1,6.9L14.1,6.9c-0.1,0-0.1,0-0.1,0V7c0,0,0,0,0,0h0.1c0,0,0,0,0,0L14.1,6.9C14.1,6.9,14.1,6.9,14.1,6.9
					z M14.1,7C14.1,7,14.1,7,14.1,7L14,7c0,0,0,0,0,0V6.9c0,0,0,0,0,0h0.1C14.1,6.9,14.1,6.9,14.1,7L14.1,7z"/>
				<path class="st0" d="M14.1,7C14.1,7,14.1,7,14.1,7L14.1,7C14,7,14,7,14,7V6.9C14,6.9,14,6.9,14.1,7L14.1,7
					C14.1,6.9,14.1,6.9,14.1,7L14.1,7z"/>
			</g>
			<g>
				<path class="st0" d="M15.4,6.8h-0.1c0,0,0,0,0,0V7c0,0,0,0,0,0h0.1c0,0,0,0,0,0L15.4,6.8C15.4,6.8,15.4,6.8,15.4,6.8z"/>
				<path class="st0" d="M15.4,6.8h-0.1c0,0,0,0,0,0V7c0,0,0,0,0,0h0.1c0,0,0,0,0,0L15.4,6.8C15.4,6.8,15.4,6.8,15.4,6.8z M15.4,7
					C15.4,7,15.4,7,15.4,7l-0.2,0c0,0,0,0,0,0V6.8c0,0,0,0,0,0h0.1c0,0,0,0,0,0V7z"/>
				<path class="st0" d="M15.4,7C15.4,7,15.4,7,15.4,7l-0.1,0c0,0,0,0,0,0V6.8c0,0,0,0,0,0h0.1c0,0,0,0,0,0V7z"/>
			</g>
			<g>
				<path class="st0" d="M14,7.8h-1.2c-0.2,0-0.4,0.2-0.4,0.4v0.3h-0.6c-0.1,0-0.2-0.1-0.2-0.1L9.7,3.2H8.9L8.2,5L6.7,9.1H7l2.1-5.6
					h0.4l1.8,5.1c0.1,0.1,0.2,0.2,0.3,0.2h0.9V8.3c0-0.2,0.1-0.3,0.3-0.3h0.9c0.2,0,0.3,0.1,0.3,0.3v0.9c0,0.2-0.1,0.3-0.3,0.3h-0.9
					c-0.2,0-0.3-0.1-0.3-0.3V8.8h-0.9c-0.2,0-0.4-0.1-0.4-0.3l-1.8-5H9.2L7.1,9.1h0.2c0.1,0,0.1,0,0.2-0.1c0,0,0.1-0.1,0.1-0.1
					l0.2-0.6l0,0l0.3-0.8l0.4-1l0.1-0.4l0.5-1.5c0-0.1,0.1-0.2,0.1-0.2c0-0.1,0.1-0.2,0.1-0.3c0,0.1,0.1,0.2,0.1,0.3
					c0,0.1,0.1,0.2,0.1,0.2L9.9,6l0.8,2.3L11,8.9C11,8.9,11,9,11.1,9c0,0,0.1,0.1,0.2,0.1h0.2h0.5h0.6v0.3c0,0.2,0.2,0.4,0.4,0.4H14
					c0.2,0,0.4-0.2,0.4-0.4V8.2C14.3,8,14.2,7.8,14,7.8z"/>
				<path class="st0" d="M12.9,9.5h0.9c0.1,0,0.2-0.1,0.2-0.2V8.3c0-0.1-0.1-0.2-0.2-0.2h-0.9c-0.1,0-0.2,0.1-0.2,0.2v0.9
					C12.7,9.4,12.8,9.5,12.9,9.5z"/>
				<path class="st0" d="M12.7,8.3c0-0.1,0.1-0.2,0.2-0.2h0.9c0.1,0,0.2,0.1,0.2,0.2v0.9c0,0.1-0.1,0.2-0.2,0.2h-0.9
					c-0.1,0-0.2-0.1-0.2-0.2V8.3z"/>
			</g>
		</g>
	</g>
</g>
</svg>
