<?xml version="1.0" encoding="utf-8"?>
<!-- Generator: Adobe Illustrator 25.2.0, SVG Export Plug-In . SVG Version: 6.00 Build 0)  -->
<svg version="1.1" id="Layer_1" xmlns="http://www.w3.org/2000/svg" xmlns:xlink="http://www.w3.org/1999/xlink" x="0px" y="0px"
	 viewBox="0 0 36 36" style="enable-background:new 0 0 36 36;" xml:space="preserve">
<style type="text/css">
	.st0{fill:#0047AB;}
</style>
<g>
	<g>
		<g>
			<g>
				<path class="st0" d="M4,18.8H3.1c-0.1,0-0.2,0.1-0.2,0.2v0.9c0,0.1,0.1,0.2,0.2,0.2H4c0.1,0,0.2-0.1,0.2-0.2V19
					C4.2,18.9,4.1,18.8,4,18.8z"/>
				<path class="st0" d="M4,18.6H3c-0.2,0-0.3,0.1-0.3,0.3v1c0,0.2,0.1,0.3,0.3,0.3h1c0.2,0,0.3-0.1,0.3-0.3v-1
					C4.4,18.7,4.2,18.6,4,18.6z M4.3,19.9c0,0.2-0.1,0.3-0.3,0.3H3.1c-0.2,0-0.3-0.1-0.3-0.3V19c0-0.2,0.1-0.3,0.3-0.3H4
					c0.2,0,0.3,0.1,0.3,0.3V19.9z"/>
			</g>
			<g>
				<path class="st0" d="M2.9,17.6H2.6c-0.1,0-0.1,0-0.1,0.1v0.4c0,0.1,0,0.1,0.1,0.1h0.4c0.1,0,0.1,0,0.1-0.1L2.9,17.6
					C3,17.6,3,17.6,2.9,17.6z"/>
				<path class="st0" d="M3,17.5H2.5c-0.1,0-0.2,0.1-0.2,0.2v0.5c0,0.1,0.1,0.2,0.2,0.2H3c0.1,0,0.2-0.1,0.2-0.2v-0.5
					C3.2,17.5,3.1,17.5,3,17.5z M3.1,18.1c0,0.1-0.1,0.1-0.1,0.1H2.6c-0.1,0-0.1-0.1-0.1-0.1v-0.4c0-0.1,0.1-0.1,0.1-0.1h0.4
					c0.1,0,0.1,0.1,0.1,0.1V18.1z"/>
			</g>
			<g>
				<path class="st0" d="M2.2,20.4H2c0,0-0.1,0-0.1,0.1v0.2c0,0,0,0.1,0.1,0.1h0.2c0,0,0.1,0,0.1-0.1L2.2,20.4
					C2.3,20.4,2.2,20.4,2.2,20.4z"/>
				<path class="st0" d="M2.3,20.3H1.9c-0.1,0-0.1,0-0.1,0.1v0.3c0,0.1,0,0.1,0.1,0.1h0.3c0.1,0,0.1,0,0.1-0.1v-0.3
					C2.4,20.4,2.3,20.3,2.3,20.3z M2.3,20.7C2.3,20.8,2.3,20.8,2.3,20.7L2,20.8c-0.1,0-0.1,0-0.1-0.1v-0.2c0-0.1,0-0.1,0.1-0.1h0.2
					c0.1,0,0.1,0,0.1,0.1V20.7z"/>
			</g>
			<g>
				<path class="st0" d="M9,14H8.8c0,0-0.1,0-0.1,0.1v0.2c0,0,0,0.1,0.1,0.1H9c0,0,0.1,0,0.1-0.1L9,14C9.1,14,9.1,14,9,14z"/>
				<path class="st0" d="M9.1,13.9H8.8c-0.1,0-0.1,0-0.1,0.1v0.3c0,0.1,0,0.1,0.1,0.1h0.3c0.1,0,0.1,0,0.1-0.1V14
					C9.2,14,9.1,13.9,9.1,13.9z M9.1,14.3C9.1,14.4,9.1,14.4,9.1,14.3l-0.3,0.1c-0.1,0-0.1,0-0.1-0.1v-0.2c0-0.1,0-0.1,0.1-0.1H9
					c0.1,0,0.1,0,0.1,0.1V14.3z"/>
			</g>
			<g>
				<path class="st0" d="M23.4,15.7h-1.6H21h-0.6c-0.1,0-0.3,0-0.4,0.1c-0.1,0.1-0.2,0.2-0.2,0.3l-3.1,8.9c-0.1,0.2-0.1,0.4-0.2,0.7
					c-0.1,0.2-0.1,0.5-0.2,0.7c-0.1-0.3-0.1-0.5-0.2-0.7c-0.1-0.2-0.1-0.5-0.2-0.7l-3.1-8.9c0-0.1-0.1-0.2-0.2-0.3
					c-0.1-0.1-0.2-0.1-0.4-0.1h-0.9h-0.5H8.4V15c0-0.4-0.4-0.8-0.8-0.8H5c-0.4,0-0.8,0.4-0.8,0.8v2.5c0,0.4,0.4,0.8,0.8,0.8h2.5
					c0.4,0,0.8-0.4,0.8-0.8v-0.7h2.5c0.2,0,0.3,0.1,0.4,0.3l4.2,11.2H17l4.2-11.2c0.1-0.2,0.2-0.3,0.4-0.3h1.9L23.4,15.7z M21,16.4
					c-0.2,0-0.3,0.1-0.4,0.3l-3.9,11h-0.8l-4.1-10.9c-0.1-0.2-0.3-0.3-0.5-0.3H8v0.9c0,0.4-0.3,0.7-0.7,0.7H5.4
					c-0.4,0-0.7-0.3-0.7-0.7v-1.9c0-0.4,0.3-0.7,0.7-0.7h1.9c0.4,0,0.7,0.3,0.7,0.7v0.9h3.3c0.3,0,0.6,0.2,0.7,0.5l4.1,10.8h0.5
					l3.8-10.8c0.1-0.3,0.3-0.4,0.6-0.4h2.5v0.2H21z"/>
				<path class="st0" d="M7.3,14.8H5.4c-0.3,0-0.5,0.2-0.5,0.5v1.9c0,0.3,0.2,0.5,0.5,0.5h1.9c0.3,0,0.5-0.2,0.5-0.5v-1.9
					C7.8,15,7.6,14.8,7.3,14.8z"/>
				<path class="st0" d="M7.8,17.2c0,0.3-0.2,0.5-0.5,0.5H5.4c-0.3,0-0.5-0.2-0.5-0.5v-1.9c0-0.3,0.2-0.5,0.5-0.5h1.9
					c0.3,0,0.5,0.2,0.5,0.5V17.2z"/>
			</g>
		</g>
		<g>
			<g>
				<path class="st0" d="M32.9,15.9h-1c-0.2,0-0.3,0.1-0.3,0.3v1c0,0.2,0.1,0.3,0.3,0.3h1c0.2,0,0.3-0.1,0.3-0.3v-1
					C33.3,16.1,33.1,15.9,32.9,15.9z M33.2,17.2c0,0.2-0.1,0.3-0.3,0.3H32c-0.2,0-0.3-0.1-0.3-0.3v-0.9c0-0.2,0.1-0.3,0.3-0.3h0.9
					c0.2,0,0.3,0.1,0.3,0.3V17.2z"/>
				<path class="st0" d="M32.8,16.1H32c-0.1,0-0.2,0.1-0.2,0.2v0.9c0,0.1,0.1,0.2,0.2,0.2h0.9c0.1,0,0.2-0.1,0.2-0.2v-0.9
					C33.1,16.2,33,16.1,32.8,16.1z"/>
				<path class="st0" d="M33.1,17.2c0,0.1-0.1,0.2-0.2,0.2H32c-0.1,0-0.2-0.1-0.2-0.2v-0.9c0-0.1,0.1-0.2,0.2-0.2h0.9
					c0.1,0,0.2,0.1,0.2,0.2V17.2z"/>
			</g>
			<g>
				<path class="st0" d="M33.9,18h-0.4c-0.1,0-0.1,0-0.1,0.1v0.4c0,0.1,0,0.1,0.1,0.1h0.4c0.1,0,0.1,0,0.1-0.1v-0.4
					C34,18.1,34,18,33.9,18z"/>
				<path class="st0" d="M34,17.9h-0.6c-0.1,0-0.2,0.1-0.2,0.2v0.6c0,0.1,0.1,0.2,0.2,0.2H34c0.1,0,0.2-0.1,0.2-0.2V18
					C34.2,17.9,34.1,17.9,34,17.9z M34.1,18.5c0,0.1-0.1,0.2-0.2,0.2h-0.4c-0.1,0-0.2-0.1-0.2-0.2v-0.4c0-0.1,0.1-0.2,0.2-0.2h0.4
					c0.1,0,0.2,0.1,0.2,0.2V18.5z"/>
				<path class="st0" d="M34,18.5c0,0.1,0,0.1-0.1,0.1h-0.4c-0.1,0-0.1,0-0.1-0.1v-0.4c0-0.1,0-0.1,0.1-0.1h0.4c0.1,0,0.1,0,0.1,0.1
					V18.5z"/>
			</g>
			<g>
				<path class="st0" d="M31.2,15.6h-0.2c0,0,0,0,0,0v0.2c0,0,0,0,0,0h0.2c0,0,0,0,0,0L31.2,15.6C31.3,15.6,31.3,15.6,31.2,15.6z"/>
				<path class="st0" d="M31.3,15.5h-0.2c0,0-0.1,0-0.1,0.1v0.2c0,0,0,0.1,0.1,0.1h0.2c0,0,0.1,0,0.1-0.1L31.3,15.5
					C31.3,15.6,31.3,15.5,31.3,15.5z M31.3,15.8C31.3,15.8,31.3,15.9,31.3,15.8l-0.2,0.1c0,0-0.1,0-0.1-0.1v-0.2c0,0,0-0.1,0.1-0.1
					h0.2c0,0,0.1,0,0.1,0.1V15.8z"/>
				<path class="st0" d="M31.3,15.8C31.3,15.8,31.3,15.8,31.3,15.8l-0.2,0c0,0,0,0,0,0v-0.2c0,0,0,0,0,0h0.2c0,0,0,0,0,0V15.8z"/>
			</g>
			<g>
				<path class="st0" d="M34,15.4h-0.2c0,0-0.1,0-0.1,0.1v0.2c0,0,0,0.1,0.1,0.1H34c0,0,0.1,0,0.1-0.1L34,15.4
					C34,15.5,34,15.4,34,15.4z"/>
				<path class="st0" d="M34,15.4h-0.3c-0.1,0-0.1,0-0.1,0.1v0.3c0,0.1,0,0.1,0.1,0.1H34c0.1,0,0.1,0,0.1-0.1v-0.3
					C34.1,15.4,34.1,15.4,34,15.4z M34.1,15.7C34.1,15.8,34,15.8,34.1,15.7l-0.3,0.1c-0.1,0-0.1,0-0.1-0.1v-0.2c0-0.1,0-0.1,0.1-0.1
					H34c0.1,0,0.1,0,0.1,0.1V15.7z"/>
				<path class="st0" d="M34,15.7C34,15.8,34,15.8,34,15.7l-0.3,0.1c0,0-0.1,0-0.1-0.1v-0.2c0,0,0-0.1,0.1-0.1H34c0,0,0.1,0,0.1,0.1
					V15.7z"/>
			</g>
			<g>
				<path class="st0" d="M30.9,17.7h-2.5c-0.4,0-0.8,0.4-0.8,0.8v0.7h-1.4c-0.2,0-0.4-0.1-0.4-0.3L21.6,7.7h-1.8l-1.4,3.7l-3.3,8.9
					h0.7l4.6-12.2h0.8l4,11c0.1,0.3,0.4,0.5,0.7,0.5h2v-0.8c0-0.4,0.3-0.7,0.7-0.7h1.9c0.4,0,0.7,0.3,0.7,0.7v1.9
					c0,0.4-0.3,0.7-0.7,0.7h-1.9c-0.4,0-0.7-0.3-0.7-0.7v-0.9h-2c-0.4,0-0.8-0.2-0.9-0.6L21.1,8.3h-0.5l-4.5,12h0.4
					c0.1,0,0.3,0,0.4-0.1c0.1-0.1,0.2-0.2,0.2-0.3l0.4-1.2l0,0l0.6-1.8l0.8-2.3l0.3-0.8l1.2-3.3c0.1-0.2,0.1-0.3,0.2-0.5
					c0.1-0.2,0.1-0.4,0.2-0.7c0.1,0.2,0.1,0.5,0.2,0.7c0.1,0.2,0.1,0.4,0.2,0.5l1.1,3.2l1.8,5l0.4,1.2c0.1,0.1,0.1,0.2,0.2,0.3
					c0.1,0.1,0.2,0.1,0.4,0.1h0.4h1h1.2V21c0,0.4,0.4,0.8,0.8,0.8h2.5c0.4,0,0.8-0.4,0.8-0.8v-2.5C31.7,18,31.4,17.7,30.9,17.7z"/>
				<path class="st0" d="M28.7,21.2h1.9c0.3,0,0.5-0.2,0.5-0.5v-1.9c0-0.3-0.2-0.5-0.5-0.5h-1.9c-0.3,0-0.5,0.2-0.5,0.5v1.9
					C28.2,20.9,28.4,21.2,28.7,21.2z"/>
				<path class="st0" d="M28.2,18.8c0-0.3,0.2-0.5,0.5-0.5h1.9c0.3,0,0.5,0.2,0.5,0.5v1.9c0,0.3-0.2,0.5-0.5,0.5h-1.9
					c-0.3,0-0.5-0.2-0.5-0.5V18.8z"/>
			</g>
		</g>
	</g>
</g>
</svg>
