<svg id="Layer_1" data-name="Layer 1" xmlns="http://www.w3.org/2000/svg" viewBox="0 0 150 150"><defs><style>.cls-1{fill:#0047ab;}</style></defs><rect class="cls-1" x="98.92" y="75.78" width="1.33" height="1.33" rx="0.23"/><path class="cls-1" d="M100.1,75.6h-1a.33.33,0,0,0-.33.33v1a.33.33,0,0,0,.33.33h1a.33.33,0,0,0,.33-.33v-1A.33.33,0,0,0,100.1,75.6Zm.24,1.28a.32.32,0,0,1-.32.33h-.88a.32.32,0,0,1-.32-.33V76a.32.32,0,0,1,.32-.33H100a.32.32,0,0,1,.32.33Z"/><rect class="cls-1" x="98.52" y="74.58" width="0.58" height="0.58" rx="0.1"/><path class="cls-1" d="M99.05,74.46h-.49a.16.16,0,0,0-.15.16v.49a.16.16,0,0,0,.15.16h.49a.16.16,0,0,0,.16-.16v-.49A.16.16,0,0,0,99.05,74.46Zm.09.6a.14.14,0,0,1-.14.14h-.38a.14.14,0,0,1-.14-.14v-.39a.14.14,0,0,1,.14-.14H99a.14.14,0,0,1,.14.14Z"/><rect class="cls-1" x="97.96" y="77.42" width="0.37" height="0.37" rx="0.06"/><path class="cls-1" d="M98.31,77.34H98a.1.1,0,0,0-.1.1v.32a.11.11,0,0,0,.1.11h.33a.11.11,0,0,0,.1-.11v-.32A.1.1,0,0,0,98.31,77.34Zm0,.38a.1.1,0,0,1-.09.1H98a.1.1,0,0,1-.09-.1v-.24a.09.09,0,0,1,.09-.09h.25a.09.09,0,0,1,.09.09Z"/><rect class="cls-1" x="104.79" y="71.02" width="0.37" height="0.37" rx="0.06"/><path class="cls-1" d="M105.14,70.94h-.33a.1.1,0,0,0-.1.1v.32a.11.11,0,0,0,.1.11h.33a.11.11,0,0,0,.1-.11V71A.1.1,0,0,0,105.14,70.94Zm0,.38a.1.1,0,0,1-.09.1h-.25a.1.1,0,0,1-.09-.1v-.24a.09.09,0,0,1,.09-.09h.25a.09.09,0,0,1,.09.09Z"/><path class="cls-1" d="M119.45,72.67h-3a.55.55,0,0,0-.38.13.69.69,0,0,0-.21.28L112.69,82c-.08.2-.15.41-.22.65s-.13.48-.18.73c-.05-.25-.12-.5-.19-.73s-.15-.45-.23-.65l-3.13-8.87a.7.7,0,0,0-.21-.29.58.58,0,0,0-.38-.12h-3.71V72a.8.8,0,0,0-.8-.81H101.1a.81.81,0,0,0-.81.81v2.53a.81.81,0,0,0,.81.81h2.54a.8.8,0,0,0,.8-.81v-.66h2.47a.41.41,0,0,1,.38.26l4.19,11.19h1.58l4.2-11.19a.41.41,0,0,1,.38-.26h1.91Zm-2.44.69a.43.43,0,0,0-.41.29l-3.88,11H112l-4.13-11a.53.53,0,0,0-.48-.33h-3.3v.85a.71.71,0,0,1-.71.72h-1.92a.71.71,0,0,1-.71-.72V72.3a.71.71,0,0,1,.71-.72h1.92a.71.71,0,0,1,.71.72v.85h3.3a.74.74,0,0,1,.68.47l4.08,10.8h.46l3.83-10.84a.64.64,0,0,1,.61-.43h2.46v.21Z"/><rect class="cls-1" x="100.92" y="71.8" width="2.92" height="2.92" rx="0.5"/><path class="cls-1" d="M103.84,74.21a.5.5,0,0,1-.5.5h-1.92a.5.5,0,0,1-.5-.5V72.3a.5.5,0,0,1,.5-.5h1.92a.5.5,0,0,1,.5.5Z"/><path class="cls-1" d="M129,72.93h-1a.33.33,0,0,0-.33.33v1a.33.33,0,0,0,.33.33h1a.33.33,0,0,0,.33-.33v-1A.33.33,0,0,0,129,72.93Zm.25,1.28a.33.33,0,0,1-.33.33H128a.33.33,0,0,1-.33-.33v-.87A.33.33,0,0,1,128,73h.87a.33.33,0,0,1,.33.33Z"/><rect class="cls-1" x="127.8" y="73.11" width="1.33" height="1.33" rx="0.23"/><path class="cls-1" d="M129.13,74.21a.23.23,0,0,1-.23.23H128a.23.23,0,0,1-.23-.23v-.87a.23.23,0,0,1,.23-.23h.87a.23.23,0,0,1,.23.23Z"/><rect class="cls-1" x="129.45" y="75.01" width="0.64" height="0.64" rx="0.11"/><path class="cls-1" d="M130.05,74.87h-.56a.18.18,0,0,0-.18.18v.56a.18.18,0,0,0,.18.18h.56a.18.18,0,0,0,.18-.18v-.56A.18.18,0,0,0,130.05,74.87Zm.09.67a.16.16,0,0,1-.16.15h-.42a.15.15,0,0,1-.15-.15v-.42a.16.16,0,0,1,.15-.16H130a.16.16,0,0,1,.16.16Z"/><path class="cls-1" d="M130.09,75.54a.11.11,0,0,1-.11.11h-.42a.11.11,0,0,1-.11-.11v-.42a.11.11,0,0,1,.11-.11H130a.11.11,0,0,1,.11.11Z"/><rect class="cls-1" x="127.09" y="72.59" width="0.25" height="0.25" rx="0.04"/><path class="cls-1" d="M127.32,72.54h-.21a.07.07,0,0,0-.06.07v.2a.07.07,0,0,0,.06.07h.21a.07.07,0,0,0,.07-.07v-.2A.07.07,0,0,0,127.32,72.54Zm0,.25a.06.06,0,0,1-.06.06h-.16s-.07,0-.07-.06v-.16a.07.07,0,0,1,.07-.06h.16a.06.06,0,0,1,.06.06Z"/><path class="cls-1" d="M127.34,72.79a0,0,0,0,1,0,0h-.16a0,0,0,0,1,0,0v-.16a0,0,0,0,1,0,0h.16a0,0,0,0,1,0,0Z"/><rect class="cls-1" x="129.72" y="72.43" width="0.37" height="0.37" rx="0.06"/><path class="cls-1" d="M130.06,72.35h-.32a.1.1,0,0,0-.1.1v.33a.1.1,0,0,0,.1.1h.32a.11.11,0,0,0,.11-.1v-.33A.11.11,0,0,0,130.06,72.35Zm.06.39a.09.09,0,0,1-.09.09h-.25a.09.09,0,0,1-.09-.09v-.25a.09.09,0,0,1,.09-.09H130a.09.09,0,0,1,.09.09Z"/><path class="cls-1" d="M130.09,72.74a.06.06,0,0,1-.06.06h-.25a.06.06,0,0,1-.06-.06v-.25a.06.06,0,0,1,.06-.06H130a.06.06,0,0,1,.06.06Z"/><path class="cls-1" d="M127,74.65h-2.54a.81.81,0,0,0-.81.81v.66h-1.36a.46.46,0,0,1-.42-.3l-4.18-11.15H115.9l-1.4,3.74-3.35,8.92h.72l4.56-12.23h.85l4,11a.8.8,0,0,0,.73.49h2v-.85a.71.71,0,0,1,.72-.71h1.91a.71.71,0,0,1,.72.71v1.92a.71.71,0,0,1-.72.71h-1.91a.71.71,0,0,1-.72-.71v-.86h-2a1,1,0,0,1-.93-.63l-3.94-10.87h-.55l-4.48,12h.41a.55.55,0,0,0,.38-.13.64.64,0,0,0,.22-.28l.43-1.22h0l.64-1.82.8-2.27.28-.79,1.15-3.28c.06-.15.12-.33.19-.54s.12-.43.19-.67q.09.36.18.66c.07.21.13.39.19.54l1.13,3.2,1.75,5,.44,1.22a.7.7,0,0,0,.21.29.58.58,0,0,0,.38.12h2.57V78a.81.81,0,0,0,.81.81H127a.8.8,0,0,0,.8-.81V75.46A.8.8,0,0,0,127,74.65Z"/><rect class="cls-1" x="124.26" y="75.25" width="2.92" height="2.92" rx="0.5"/><path class="cls-1" d="M124.26,75.75a.5.5,0,0,1,.5-.5h1.91a.5.5,0,0,1,.5.5v1.92a.5.5,0,0,1-.5.5h-1.91a.5.5,0,0,1-.5-.5Z"/><path class="cls-1" d="M26.27,71.82h-6.5V70.1h6.15a6.91,6.91,0,0,1,2.38.39,5.25,5.25,0,0,1,1.81,1,4.52,4.52,0,0,1,1.15,1.56,4.71,4.71,0,0,1,.4,1.92,4.64,4.64,0,0,1-.35,1.72,5.12,5.12,0,0,1-1,1.58,5.36,5.36,0,0,1-1.65,1.15,5.51,5.51,0,0,1-2.25.44H19.77V73.54h2.54v4.64h3.83a2.47,2.47,0,0,0,1.12-.28,3.83,3.83,0,0,0,1-.72,4.2,4.2,0,0,0,.75-1A2.59,2.59,0,0,0,29.33,75,2.23,2.23,0,0,0,29,73.85a4.39,4.39,0,0,0-.81-1,4.62,4.62,0,0,0-1-.74A2,2,0,0,0,26.27,71.82Z"/><path class="cls-1" d="M35.89,70.1v9.8H33.27V70.1Z"/><path class="cls-1" d="M45,78.18a1,1,0,0,0,.46-.11,1.51,1.51,0,0,0,.39-.27,1.39,1.39,0,0,0,.29-.36.81.81,0,0,0,.1-.39,1.2,1.2,0,0,0-.34-.83,1.14,1.14,0,0,0-.9-.38h-4a3.61,3.61,0,0,1-1.35-.23,2.93,2.93,0,0,1-1-.63,2.59,2.59,0,0,1-.65-.9,2.55,2.55,0,0,1-.23-1A2.58,2.58,0,0,1,38,71.86a3,3,0,0,1,.75-.92,3.66,3.66,0,0,1,1.12-.61,4.24,4.24,0,0,1,1.4-.23h7.24v1.72H41.08a.75.75,0,0,0-.41.12,1.06,1.06,0,0,0-.31.29,1.66,1.66,0,0,0-.2.4,1.16,1.16,0,0,0-.07.4.87.87,0,0,0,.09.37,1.8,1.8,0,0,0,.24.35,1.4,1.4,0,0,0,.33.27.6.6,0,0,0,.32.1h4.15a3.63,3.63,0,0,1,2.44.88,2.72,2.72,0,0,1,.7.92A2.59,2.59,0,0,1,48.6,77a2.77,2.77,0,0,1-.2,1,3.22,3.22,0,0,1-.58.93,3.34,3.34,0,0,1-.91.7,2.6,2.6,0,0,1-1.19.27h-7.9V78.18Z"/><path class="cls-1" d="M57.45,70.1a4.29,4.29,0,0,1,1.6.27,3.16,3.16,0,0,1,1.08.73,2.8,2.8,0,0,1,.61,1,3.52,3.52,0,0,1,.2,1.15,3,3,0,0,1-.19,1,3.19,3.19,0,0,1-.51.92,3.5,3.5,0,0,1-.8.73,3.35,3.35,0,0,1-1,.43L62,79.9H58.83L53.6,74.75h3.85a.55.55,0,0,0,.37-.16,2,2,0,0,0,.31-.38,2,2,0,0,0,.22-.44,1,1,0,0,0,.09-.35,1.68,1.68,0,0,0,0-.41,1.6,1.6,0,0,0-.16-.48,1.14,1.14,0,0,0-.3-.39.77.77,0,0,0-.48-.16H52.92V79.9H50.3V70.1Z"/><path class="cls-1" d="M71.07,79.9V78.43L69.64,79.9H65.81a4.31,4.31,0,0,1-1.48-.22,2.78,2.78,0,0,1-1-.59,2.43,2.43,0,0,1-.57-.87,2.75,2.75,0,0,1-.19-1V70.1H65.2v6.69a2.79,2.79,0,0,0,0,.55.72.72,0,0,0,.19.38.82.82,0,0,0,.4.22,2.51,2.51,0,0,0,.69.08h4.54V70.1h2.62v9.8Z"/><path class="cls-1" d="M82.51,70.1a3.65,3.65,0,0,1,1.58.31,3.4,3.4,0,0,1,1.09.79,3.12,3.12,0,0,1,.63,1.1A3.54,3.54,0,0,1,86,73.48a3,3,0,0,1-.23,1.1,4,4,0,0,1-.63,1.06,3.63,3.63,0,0,1-1,.79,2.7,2.7,0,0,1-1.31.32H79.52l-1.4-1.47V79.9H75.49V70.1ZM78.12,75h4.24a1,1,0,0,0,.53-.16,1.42,1.42,0,0,0,.41-.4,2.13,2.13,0,0,0,.25-.5,1.4,1.4,0,0,0,.08-.47,1.27,1.27,0,0,0-.08-.42,1.86,1.86,0,0,0-.57-.91.75.75,0,0,0-.47-.17H78.12Z"/><path class="cls-1" d="M87.53,70.1h10v1.72h-3.7V79.9H91.23V71.82h-3.7Z"/></svg>